<svg style="clip-rule:evenodd;fill-rule:evenodd;stroke-linejoin:round;stroke-miterlimit:2" version="1.1" viewBox="0 0 2200 900" xml:space="preserve" xmlns="http://www.w3.org/2000/svg" xmlns:serif="http://www.serif.com/">
    <g transform="translate(-2870.1 -110.59)">
        <g transform="matrix(1.5942 0 0 .9 .50296 -915.41)">
            <rect id="Logo-horizontal" x="1800" y="1140" width="1380" height="1e3" style="fill:none" serif:id="Logo horizontal"/>
            <g serif:id="Logo horizontal">
                <g transform="matrix(3.9034 0 0 7.334 131.96 -1960)" style="fill:white">
                        <path d="m571.56 521.11 15.952-57.212h19.94l15.951 57.212h-11.79l-3.294-12.587h-21.674l-3.294 12.587h-11.791zm17.773-22.558h16.298l-7.369-27.87h-1.56l-7.369 27.87z" style="fill-rule:nonzero"/>
                        <path d="m651.02 522.25c-7.514 0-13.467-1.975-17.859-5.925-4.393-3.951-6.589-9.604-6.589-16.96v-13.73c0-7.356 2.196-13.009 6.589-16.96 4.392-3.95 10.345-5.925 17.859-5.925 7.455 0 13.221 1.921 17.295 5.762 4.075 3.841 6.112 9.113 6.112 15.815v0.49h-11.27v-0.817c0-3.378-0.997-6.157-2.991-8.337-1.994-2.179-5.043-3.269-9.146-3.269-4.046 0-7.225 1.172-9.537 3.515-2.311 2.343-3.467 5.53-3.467 9.562v14.058c0 3.977 1.156 7.151 3.467 9.521 2.312 2.371 5.491 3.556 9.537 3.556 4.103 0 7.152-1.104 9.146-3.31 1.994-2.207 2.991-4.972 2.991-8.296v-1.471h11.27v1.144c0 6.702-2.037 11.974-6.112 15.815-4.074 3.841-9.84 5.762-17.295 5.762z" style="fill-rule:nonzero"/>
                        <path d="m681.59 521.11v-57.212h24.968c3.814 0 7.181 0.722 10.099 2.166 2.919 1.444 5.202 3.474 6.849 6.089s2.471 5.721 2.471 9.317v1.145c0 3.541-0.852 6.633-2.557 9.276s-4.017 4.686-6.936 6.13-6.227 2.166-9.926 2.166h-13.525v20.923h-11.443zm11.443-30.731h12.398c2.716 0 4.912-0.708 6.588-2.125s2.514-3.351 2.514-5.803v-0.817c0-2.452-0.838-4.386-2.514-5.803s-3.872-2.125-6.588-2.125h-12.398v16.673z" style="fill-rule:nonzero"/>
                        <path d="m754.81 522.25c-7.513 0-13.466-1.975-17.859-5.925-4.392-3.951-6.588-9.604-6.588-16.96v-13.73c0-7.356 2.196-13.009 6.588-16.96 4.393-3.95 10.346-5.925 17.859-5.925 7.456 0 13.221 1.921 17.296 5.762 4.074 3.841 6.112 9.113 6.112 15.815v0.49h-11.271v-0.817c0-3.378-0.997-6.157-2.991-8.337-1.993-2.179-5.042-3.269-9.146-3.269-4.045 0-7.224 1.172-9.536 3.515s-3.468 5.53-3.468 9.562v14.058c0 3.977 1.156 7.151 3.468 9.521 2.312 2.371 5.491 3.556 9.536 3.556 4.104 0 7.153-1.104 9.146-3.31 1.994-2.207 2.991-4.972 2.991-8.296v-1.471h11.271v1.144c0 6.702-2.038 11.974-6.112 15.815-4.075 3.841-9.84 5.762-17.296 5.762z" style="fill-rule:nonzero"/>
                </g>
                <g transform="matrix(4.6339 0 0 8.2082 844.06 -1273.9)">
                    <g transform="matrix(1.069 0 0 1.069 -313.91 -206.74)">
                        <path d="m535.47 540c-8.003 0-14.5-5.5-14.5-14.5s6.497-14.5 14.5-14.5c8.002 0 14.5 5.501 14.5 14.5s-6.498 14.5-14.5 14.5z" style="fill:#cc001a"/>
                    </g>
                    <g transform="matrix(.13059 0 0 .13059 96.746 140.84)" style="fill:white">
                        <path d="m1400.9 1397.7c-10.48-17.68-16.49-39.21-16.49-63.99 0-73.67 53.19-118.69 118.69-118.69 65.51 0 118.7 45.03 118.7 118.69 0 60.9-36.34 102.22-85.94 114.72v383.13c49.71 12.43 86.15 53.79 86.15 114.77 0 73.66-53.19 118.69-118.7 118.69-65.5 0-118.69-45.02-118.69-118.69 0-60.99 36.44-102.34 86.15-114.77v-383.02c-7.45-1.85-14.6-4.35-21.37-7.46l-94.9 105.33c-13.71-17.32-31.4-30.74-51.74-39.72l98.14-108.99z"/>
                        <path d="m1067.6 1869c16.15 19.72 25.8 45.91 25.8 77.3 0 73.66-53.19 118.69-118.69 118.69-65.509 0-118.69-45.02-118.69-118.69 0-73.68 53.185-118.7 118.69-118.7 13.199 0 25.903 1.83 37.763 5.35l100.96-112.13c11.74 19.07 27.76 34.38 46.72 45.4l-92.55 102.78z"/>
                    </g>
                </g>
            </g>
        </g>
    </g>
</svg>
