<svg style="clip-rule:evenodd;fill-rule:evenodd;stroke-linejoin:round;stroke-miterlimit:2" version="1.1" viewBox="0 0 101 59" xml:space="preserve" xmlns="http://www.w3.org/2000/svg"><g><path d="m99.1 42.9-15.1 15.1c-0.6 0.6-1.5 1-2.4 1h-79.9c-0.9 0-1.7-0.7-1.7-1.7v-38.2c0-0.9 0.4-1.7 1-2.4l15.1-15.1c0.6-0.6 1.5-1 2.4-1h79.9c0.9 0 1.7 0.7 1.7 1.7v38.2c0 0.9-0.4 1.7-1 2.4z" style="fill:#ff8200"/><path d="m97.7 56.9v-0.7h0.4c0.2 0 0.3 0.1 0.3 0.3v0.1c0 0.2-0.1 0.3-0.3 0.3h-0.4zm0 0.3h0.3l0.4 0.8h0.6l-0.5-0.8c0.3-0.1 0.4-0.3 0.4-0.6 0-0.4-0.3-0.7-0.7-0.7h-1v2.1h0.5v-0.8zm0.3 1.3c-0.9 0-1.5-0.6-1.5-1.5v-0.2c0-0.9 0.7-1.5 1.5-1.5s1.5 0.6 1.5 1.5v0.2c0.1 0.9-0.6 1.5-1.5 1.5zm0 0.5c1.2 0 2.1-0.9 2.1-2.1s-0.9-2.1-2.1-2.1-2.1 0.9-2.1 2.1 0.9 2.1 2.1 2.1z" style="fill-rule:nonzero;fill:#ff8200"/><path d="m37 42.3h-5.1c-0.3 0-0.6-0.3-0.6-0.6v-8.2c0-0.3-0.3-0.6-0.6-0.6h-7.2c-0.3 0-0.6 0.3-0.6 0.6v8.2c0 0.3-0.3 0.6-0.6 0.6h-5.1c-0.3 0-0.6-0.3-0.6-0.6v-23.8c0-0.3 0.3-0.6 0.6-0.6h5.1c0.3 0 0.6 0.3 0.6 0.6v8.2c0 0.3 0.3 0.6 0.6 0.6h7.2c0.3 0 0.6-0.3 0.6-0.6v-8.2c0-0.3 0.3-0.6 0.6-0.6h5.1c0.3 0 0.6 0.3 0.6 0.6v23.9c-0.1 0.2-0.3 0.5-0.6 0.5zm19.3-19.3h-8.3v6.3h8.3v-6.3zm6.7 19.3h-5.7c-0.2 0-0.4-0.1-0.6-0.2s-0.3-0.2-0.4-0.4l-3.8-6.6c0-0.1-0.1-0.1-0.3-0.1h-4.1c-0.1 0-0.2 0.1-0.2 0.2v6.4c0 0.5-0.2 0.7-0.7 0.7h-4.9c-0.5 0-0.7-0.2-0.7-0.7v-23.6c0-0.5 0.2-0.7 0.7-0.7h16c0.6 0 1.1 0.1 1.6 0.3s1 0.5 1.3 0.9c0.4 0.4 0.7 0.8 0.9 1.3s0.3 1.1 0.3 1.6v9.4c0 0.9-0.3 1.7-0.8 2.4s-1.2 1.2-2.1 1.5h-0.1c-0.2 0-0.2 0.1-0.1 0.2v0.1l3.8 6.6c0.1 0.2 0.1 0.3 0 0.4 0.2 0.2 0.1 0.3-0.1 0.3zm21.9-18.8h-5.6c-0.3 0-0.6 0.3-0.6 0.6v17.6c0 0.3-0.3 0.6-0.6 0.6h-5.1c-0.3 0-0.6-0.3-0.6-0.6v-17.6c0-0.3-0.3-0.6-0.6-0.6h-5.6c-0.3 0-0.6-0.3-0.6-0.6v-5.1c0-0.3 0.3-0.6 0.6-0.6h18.6c0.3 0 0.6 0.3 0.6 0.6v5.1c0.1 0.4-0.2 0.6-0.5 0.6z" style="fill:#fff"/></g></svg>
