<?xml version="1.0" encoding="UTF-8" standalone="no"?>
<svg
   viewBox="2 -1 42.424244 22.5"
   width="800"
   height="180"
   fill="#ffffff"
   version="1.1"
   id="svg27"
   sodipodi:docname="imc.svg"
   inkscape:version="1.4 (e7c3feb100, 2024-10-09)"
   xmlns:inkscape="http://www.inkscape.org/namespaces/inkscape"
   xmlns:sodipodi="http://sodipodi.sourceforge.net/DTD/sodipodi-0.dtd"
   xmlns="http://www.w3.org/2000/svg"
   xmlns:svg="http://www.w3.org/2000/svg">
  <defs
     id="defs27" />
  <sodipodi:namedview
     id="namedview27"
     pagecolor="#505050"
     bordercolor="#ffffff"
     borderopacity="1"
     inkscape:showpageshadow="0"
     inkscape:pageopacity="0"
     inkscape:pagecheckerboard="1"
     inkscape:deskcolor="#505050"
     showgrid="true"
     inkscape:zoom="1.1056528"
     inkscape:cx="369.01275"
     inkscape:cy="121.64759"
     inkscape:window-width="2304"
     inkscape:window-height="1536"
     inkscape:window-x="0"
     inkscape:window-y="0"
     inkscape:window-maximized="0"
     inkscape:current-layer="svg27">
    <inkscape:grid
       id="grid27"
       units="px"
       originx="0"
       originy="0"
       spacingx="0.053030305"
       spacingy="0.125"
       empcolor="#0099e5"
       empopacity="0.30196078"
       color="#0099e5"
       opacity="0.14901961"
       empspacing="5"
       enabled="true"
       visible="true" />
  </sodipodi:namedview>
  <path
     d="M 56.174803,15.689518 V 8.7218217 c 0,-1.4568812 -0.161853,-2.4864492 -0.849406,-3.3821806 -0.864666,-1.1248178 -1.914877,-1.5443719 -3.286778,-1.5443719 -1.930541,0 -3.503246,1.1659991 -4.527754,2.5327547 C 47.385566,5.9756914 47.204838,5.6455677 46.975519,5.3499344 46.110853,4.2251168 45.060642,3.8055625 43.691151,3.8055625 c -1.732145,0 -3.176335,0.9420691 -4.195621,2.1209316 V 4.05781 h -4.213294 v 0.4118351 h 0.257433 c 0.568679,0 0.931736,0.3449069 0.931736,1.0295759 0,0.2265082 0,9.989532 0,10.195438 0,0.687235 -0.363057,1.029567 -0.931736,1.029567 H 35.282236 V 17.1515 h 5.405272 v -0.432414 h -0.257431 c -0.56868,0 -0.931735,-0.342333 -0.931735,-1.029568 0,-0.138997 0,-4.715506 0,-8.2212021 C 40.175054,6.567424 41.312814,5.57131 42.520056,5.57131 c 0.353015,-0.020163 0.705629,0.04731 1.026114,0.1963872 0.320887,0.1491175 0.599604,0.3752244 0.811653,0.6581588 0.325306,0.4964705 0.478318,1.0861952 0.434943,1.6782087 v 7.5854533 c 0,0.684665 -0.360242,1.029568 -0.928923,1.029568 h -0.257431 v 0.416992 h 5.40527 v -0.419562 h -0.257431 c -0.569083,0 -0.931735,-0.342332 -0.931735,-1.029568 0,-0.226508 0,-5.7090497 0,-6.9676961 0.0032,-0.3875536 -0.01308,-0.7749871 -0.04899,-1.1608544 0.671896,-0.9214946 1.842991,-1.9870869 3.088784,-1.9870869 0.353017,-0.020682 0.70523,0.046265 1.026116,0.194942 0.320485,0.1486747 0.599602,0.3743812 0.811655,0.6570342 0.327313,0.4956673 0.481128,1.0857936 0.437754,1.6782089 v 7.5880233 c 0,0.684665 -0.363055,1.029568 -0.932139,1.029568 h -0.25703 v 0.416992 h 5.405274 v -0.419563 h -0.257433 c -0.569081,0 -0.931737,-0.342332 -0.931737,-1.029568"
     id="path1"
     style="stroke-width:4.01611" />
  <path
     d="m 27.698628,4.4747936 h 0.257431 c 0.568681,0 0.931735,0.3423327 0.931735,1.0295678 0,0.2265082 0,9.8762786 0,10.0847546 0,0.684664 -0.360645,1.137681 -0.931735,1.137681 H 27.698628 V 17.1515 H 33.1039 v -0.411812 h -0.257433 c -0.569081,0 -0.929324,-0.342332 -0.929324,-1.029608 0,-0.229078 0,-9.9688887 0,-10.1953971 0,-0.6846851 0.360243,-1.0295958 0.931736,-1.0295958 h 0.25743 V 4.05781 h -5.405271 z"
     id="path2"
     style="stroke-width:4.01611" />
  <path
     d="m 70.868916,13.764199 c -0.466269,0.731974 -1.11487,1.330293 -1.881945,1.736361 -0.767075,0.406109 -1.626118,0.60599 -2.493998,0.580207 -2.015282,-0.06695 -3.783572,-1.716844 -4.573539,-4.463255 -0.978321,-3.3950524 -0.139365,-5.7141908 2.059055,-6.7257386 1.701222,-0.7850554 3.665096,0.041181 4.239399,0.8596989 -0.772296,0.3757867 -0.908844,1.3358762 -0.733742,1.9176087 0.08514,0.2622913 0.232531,0.500125 0.429321,0.6932194 0.196796,0.1931344 0.437355,0.3358263 0.701213,0.4159476 0.263855,0.080121 0.543377,0.095302 0.814463,0.044258 0.271088,-0.051045 0.525709,-0.1668282 0.742176,-0.3375127 0.584345,-0.4504071 0.746594,-1.173707 0.584345,-1.8969669 C 70.580566,5.8158102 69.937183,5.1954991 69.182958,4.7218924 68.102626,4.0489462 66.852412,3.6988669 65.579309,3.7129031 c -3.557063,-0.033462 -6.854283,2.9574533 -6.854283,7.0552029 0,4.221285 3.655056,6.777213 6.797655,6.777213 1.207242,0.02141 2.398417,-0.280083 3.450233,-0.873342 1.051417,-0.593299 1.925722,-1.456761 2.531751,-2.501108 -0.04378,-0.03088 -0.571491,-0.355184 -0.628118,-0.409241"
     id="path3"
     style="stroke-width:4.01611" />
  <path
     d="m -16.130177,1.4503923 c -0.576953,0.00153 -1.140533,0.1740112 -1.619533,0.4956668 -0.478961,0.3216536 -0.851896,0.7780515 -1.071617,1.3115344 -0.219761,0.533487 -0.276468,1.1201271 -0.162974,1.685823 0.113534,0.565684 0.392132,1.0850465 0.80065,1.49252 0.408518,0.4074337 0.928603,0.6846654 1.494592,0.7966343 0.56599,0.1120087 1.152501,0.053775 1.685398,-0.1673902 0.532896,-0.2211268 0.988282,-0.595267 1.308687,-1.0751108 0.320405,-0.4798037 0.49137,-1.0438451 0.49141,-1.6208145 -3.61e-4,-0.3838639 -0.07634,-0.7638993 -0.223616,-1.1183845 -0.147311,-0.3544855 -0.363015,-0.6764644 -0.634785,-0.9475393 -0.27181,-0.2710788 -0.594343,-0.4859311 -0.949246,-0.632283 -0.354863,-0.146352 -0.735107,-0.2213326 -1.118966,-0.2206562 z m 0,4.1337693 c -0.241007,5.222e-4 -0.476752,-0.070522 -0.677356,-0.2041104 -0.200604,-0.1335844 -0.357072,-0.3237018 -0.449522,-0.5462701 -0.09245,-0.2225726 -0.116787,-0.4675788 -0.06988,-0.7039866 0.04687,-0.236408 0.162893,-0.4535745 0.333296,-0.6239978 0.170444,-0.1704235 0.387594,-0.2864286 0.624022,-0.3333244 0.236388,-0.046895 0.48141,-0.022568 0.703983,0.0699 0.222572,0.092468 0.412694,0.2489142 0.54627,0.4495185 0.133576,0.2006081 0.20462,0.4363494 0.204098,0.6773635 0,0.1595441 -0.03141,0.317525 -0.09249,0.4649242 -0.06104,0.1474006 -0.150523,0.2813318 -0.263336,0.3941441 -0.112812,0.1128159 -0.246749,0.2023031 -0.39414,0.2633478 -0.147391,0.061086 -0.305385,0.092492 -0.464943,0.09249 z"
     id="path4"
     style="stroke-width:4.01611" />
  <path
     d="m -4.4468938,7.2881136 c -0.5774353,5.219e-4 -1.1416975,0.1722894 -1.6214614,0.4935386 -0.4798035,0.3212481 -0.8535019,0.7775977 -1.0738655,1.3112975 -0.2204036,0.5336999 -0.2775126,1.1207733 -0.1641776,1.6869633 0.1133352,0.56615 0.3920117,1.085995 0.8008509,1.49375 0.4088393,0.407754 0.9294065,0.685066 1.4958776,0.796915 0.5664714,0.111847 1.1533843,0.05313 1.6865216,-0.168636 0.533097,-0.22181 0.988443,-0.596713 1.308446,-1.07732 0.320002,-0.480647 0.490245,-1.045391 0.489241,-1.622787 -0.00137,-0.7736611 -0.309843,-1.5151541 -0.857639,-2.0615447 -0.547796,-0.5463508 -1.290132,-0.8528596 -2.0637936,-0.8521767 z m 0,4.1337734 c -0.2406851,0 -0.4759888,-0.07132 -0.6761512,-0.204981 -0.2001633,-0.133696 -0.3561879,-0.323658 -0.4483977,-0.54599 -0.092249,-0.222331 -0.1165075,-0.466992 -0.069719,-0.7030585 0.046748,-0.2361065 0.1624506,-0.4530565 0.3324528,-0.6234196 0.1700008,-0.1703631 0.3867107,-0.2865086 0.6226967,-0.3337781 0.2360264,-0.04727 0.4807274,-0.023534 0.7032196,0.068193 0.2225321,0.091768 0.4128553,0.2474321 0.5469523,0.4473136 0.134057,0.1998412 0.205906,0.4349839 0.206428,0.6756686 0,0.15976 -0.03153,0.317955 -0.09273,0.465507 -0.06121,0.147591 -0.150926,0.281649 -0.264019,0.394462 -0.113094,0.112852 -0.247352,0.202291 -0.3950239,0.263216 -0.1477125,0.06088 -0.3059466,0.09205 -0.4657071,0.09173"
     id="path5"
     style="stroke-width:4.01611" />
  <path
     d="m -4.4468938,1.4503962 c -0.5771944,5.09e-4 -1.1412559,0.1721298 -1.6209393,0.4931689 -0.4796831,0.3210352 -0.8533815,0.7770796 -1.0739055,1.3104741 -0.2205242,0.5333987 -0.2779545,1.1202034 -0.1650633,1.6862367 0.1129326,0.5660537 0.391128,1.0858979 0.7994452,1.4938535 0.4083171,0.4079556 0.9284024,0.6856692 1.4945523,0.7980799 0.5661097,0.1124515 1.1528621,0.05446 1.6860802,-0.1665065 0.533177,-0.2210061 0.988925,-0.5951465 1.30953,-1.0750706 0.320606,-0.4799643 0.491731,-1.0441865 0.491731,-1.6213726 0,-0.3835256 -0.07558,-0.7632923 -0.222452,-1.1175968 -0.146827,-0.3543016 -0.36205,-0.6761881 -0.633377,-0.947263 -0.271328,-0.2710748 -0.593379,-0.4860222 -0.9478,-0.6325573 C -3.6835532,1.5253069 -4.0633564,1.450058 -4.4468938,1.4503962 Z m 0,4.1337654 c -0.2409262,0 -0.4763901,-0.071448 -0.6766732,-0.2053594 C -5.323851,5.2449098 -5.4798756,5.0546145 -5.5719647,4.831998 -5.664014,4.6093812 -5.687989,4.3644553 -5.6407999,4.1282203 -5.5936108,3.891981 -5.4773851,3.6750513 -5.306861,3.5048849 -5.1363368,3.334723 -4.9191868,3.2189706 -4.6828392,3.1722875 c 0.2363476,-0.046686 0.4812095,-0.02221 0.7036211,0.070335 0.2224518,0.092542 0.4124139,0.2489905 0.5458679,0.4495424 0.133456,0.2005518 0.20446,0.4361928 0.203938,0.6770947 0,0.1597614 -0.03153,0.3179549 -0.09273,0.4655183 -0.06121,0.1475677 -0.150926,0.2816132 -0.264019,0.3944617 -0.113093,0.1128481 -0.2473118,0.202283 -0.3950237,0.2631951 -0.1477125,0.060884 -0.3059466,0.092088 -0.4657079,0.091727 z"
     id="path6"
     style="stroke-width:4.01611" />
  <path
     d="m -10.284901,7.2881136 c -0.577515,0 -1.142059,0.1713273 -1.622144,0.4922938 -0.480125,0.3209665 -0.854225,0.7771155 -1.07503,1.3107753 -0.220765,0.5336597 -0.278276,1.1208133 -0.165223,1.6871243 0.113054,0.566351 0.39157,1.086436 0.800289,1.494432 0.408719,0.408036 0.929286,0.685589 1.495838,0.797638 0.566551,0.112051 1.1535851,0.05354 1.6868431,-0.168195 0.5332578,-0.221728 0.9887643,-0.596632 1.3088876,-1.077319 0.3201236,-0.480687 0.4904465,-1.045512 0.4894022,-1.623028 C -7.3674034,9.4286155 -7.6755187,8.687484 -8.2227529,8.1412138 -8.7700272,7.5949437 -9.5116407,7.2881136 -10.284901,7.2881136 Z m 0,4.1337734 c -0.240685,0 -0.475948,-0.07132 -0.676111,-0.204981 -0.200163,-0.133696 -0.356228,-0.323658 -0.448438,-0.54599 -0.09221,-0.222331 -0.116467,-0.466992 -0.06972,-0.7030585 0.04679,-0.2361065 0.162493,-0.4530565 0.332493,-0.6234196 0.170003,-0.1703631 0.386711,-0.2865487 0.622697,-0.3337781 0.235986,-0.04727 0.480688,-0.023534 0.70322,0.068193 0.2224919,0.091768 0.412815,0.2474321 0.5469127,0.4472733 0.1340977,0.1998815 0.2059055,0.4350242 0.2064276,0.6757089 -6.829e-4,0.322453 -0.1292387,0.631452 -0.3575133,0.859245 -0.228236,0.227754 -0.537516,0.355667 -0.859969,0.355667"
     id="path7"
     style="stroke-width:4.01611" />
  <path
     d="m -10.284901,1.4503951 c -0.577275,0 -1.141617,0.1711884 -1.621622,0.491917 -0.480004,0.3207299 -0.854145,0.7765936 -1.07503,1.3099439 -0.220926,0.5333546 -0.278758,1.1202396 -0.166106,1.6864457 0.112612,0.5662223 0.390606,1.0863074 0.798803,1.494504 0.408236,0.4081966 0.928321,0.6861913 1.494512,0.7988429 0.56623,0.1126126 1.1531032,0.05482 1.6864415,-0.1661059 0.5333786,-0.2209258 0.9892464,-0.595066 1.3099724,-1.0750706 0.3207258,-0.4800044 0.491892,-1.0443189 0.491892,-1.6216135 0,-0.7741319 -0.3075129,-1.5165564 -0.8549075,-2.0639471 -0.547395,-0.5473946 -1.2898117,-0.8549166 -2.0639554,-0.8549164 z m 0,4.1337665 c -0.240886,0 -0.47639,-0.071486 -0.676673,-0.2053594 -0.200244,-0.1338924 -0.356308,-0.3241877 -0.448358,-0.5468042 -0.09209,-0.2226168 -0.116024,-0.4675427 -0.06883,-0.7037818 0.04715,-0.2362352 0.163374,-0.4531649 0.333899,-0.6233313 0.170524,-0.1701659 0.387714,-0.2859143 0.624022,-0.3326014 0.236347,-0.046684 0.48121,-0.022206 0.703661,0.070339 0.2224118,0.092542 0.4123736,0.2489905 0.5458286,0.4495426 0.1334958,0.2005518 0.2044597,0.4361888 0.2039377,0.6770947 0,0.1597614 -0.031487,0.3179507 -0.092732,0.4655183 -0.061204,0.1475677 -0.1509248,0.2816132 -0.2640184,0.3944617 -0.1130937,0.1128481 -0.2473116,0.202283 -0.3950239,0.2631951 -0.147672,0.060885 -0.305947,0.092049 -0.465708,0.091727 z"
     id="path8"
     style="stroke-width:4.01611" />
  <path
     d="m -10.284901,13.123269 c -0.577275,0 -1.141617,0.171207 -1.621622,0.491932 -0.480004,0.320726 -0.854145,0.776594 -1.07503,1.309932 -0.220926,0.533339 -0.278758,1.120252 -0.166106,1.686442 0.112612,0.56619 0.390606,1.086315 0.798803,1.494512 0.408236,0.408196 0.928321,0.686191 1.494512,0.798843 0.56623,0.112612 1.1531032,0.05482 1.6864415,-0.166106 0.5333786,-0.220926 0.9892464,-0.595066 1.3099724,-1.075071 0.3207258,-0.480004 0.491892,-1.044307 0.491892,-1.621621 0,-0.774144 -0.3075129,-1.516561 -0.8549075,-2.063955 -0.547395,-0.547396 -1.2898117,-0.854908 -2.0639554,-0.854908 z m 0,4.136344 c -0.240805,0 -0.476189,-0.07141 -0.676392,-0.205182 -0.200203,-0.133776 -0.356268,-0.323899 -0.448398,-0.546391 -0.09217,-0.222452 -0.116266,-0.467234 -0.06928,-0.70342 0.04695,-0.236188 0.162934,-0.453097 0.333176,-0.62338 0.170284,-0.170242 0.387232,-0.286228 0.623379,-0.333176 0.236187,-0.04699 0.480969,-0.02289 0.703421,0.06928 0.2224918,0.09213 0.412614,0.248195 0.5463904,0.448398 0.1337757,0.200204 0.2051827,0.435586 0.2051827,0.676392 0,0.322895 -0.1282745,0.632576 -0.3565898,0.860892 -0.2283153,0.228315 -0.5379963,0.356589 -0.8608913,0.356589 z"
     id="path9"
     style="stroke-width:4.01611" />
  <path
     d="m -16.130177,13.123269 c -0.576953,0.0015 -1.140533,0.174016 -1.619533,0.495667 -0.478961,0.32165 -0.851896,0.77804 -1.071617,1.311539 -0.219761,0.533499 -0.276468,1.120131 -0.162974,1.685839 0.113534,0.565668 0.392132,1.08503 0.80065,1.492464 0.408518,0.407473 0.928603,0.684665 1.494592,0.796674 0.56599,0.112009 1.152501,0.05377 1.685398,-0.16739 0.532897,-0.221128 0.988283,-0.595268 1.308687,-1.075112 0.320405,-0.479844 0.491371,-1.043865 0.491411,-1.620818 -3.62e-4,-0.383859 -0.07635,-0.763903 -0.223617,-1.118404 -0.147311,-0.354462 -0.363015,-0.676432 -0.634785,-0.947519 -0.27181,-0.271087 -0.594343,-0.485949 -0.949246,-0.632295 -0.354863,-0.146347 -0.735107,-0.221328 -1.118966,-0.220645 z m 0,4.136344 c -0.240886,5.22e-4 -0.476551,-0.07048 -0.677075,-0.203938 -0.200564,-0.133455 -0.357031,-0.323416 -0.449562,-0.545828 -0.09253,-0.222452 -0.117029,-0.467314 -0.07032,-0.703661 0.04667,-0.236308 0.162412,-0.453499 0.332613,-0.624022 0.170162,-0.170524 0.387072,-0.28675 0.623299,-0.333939 0.236268,-0.04719 0.48117,-0.02321 0.703782,0.06888 0.222613,0.09205 0.412936,0.248115 0.546832,0.448358 0.133857,0.200282 0.205344,0.435787 0.205344,0.676673 0,0.322453 -0.127913,0.631733 -0.355666,0.859968 -0.227794,0.228274 -0.536793,0.35683 -0.859244,0.357512 z"
     id="path10"
     style="stroke-width:4.01611" />
  <path
     d="m 1.3933208,7.2881136 c -0.577515,0 -1.14205901,0.1713273 -1.62218401,0.4922938 -0.480085,0.3209265 -0.85422499,0.7771155 -1.07498999,1.3107753 -0.220765,0.5336597 -0.278276,1.1207733 -0.165223,1.6871243 0.113054,0.566351 0.39153,1.086436 0.80028799,1.494432 0.408719,0.407996 0.929286,0.685589 1.49583801,0.797638 0.566511,0.11205 1.153585,0.05349 1.686843,-0.168195 0.533259,-0.221728 0.988765,-0.596632 1.308889,-1.077319 0.320083,-0.480687 0.490407,-1.045512 0.489403,-1.623028 3.2e-4,-0.3834165 -0.07494,-0.7630987 -0.221489,-1.1173994 C 3.9441078,8.730135 3.7291258,8.4082445 3.4579988,8.1371174 3.1869118,7.8660306 2.8649818,7.6510488 2.5107208,7.5044608 c -0.3543,-0.1465476 -0.733983,-0.2218092 -1.1174,-0.221488 m 0,4.1337742 c -0.241006,4.82e-4 -0.476751,-0.07052 -0.677356,-0.204098 -0.200604,-0.133616 -0.35707101,-0.323739 -0.44952201,-0.546271 -0.092491,-0.222572 -0.116788,-0.467595 -0.06992,-0.7040227 0.04691,-0.2363876 0.162893,-0.4535783 0.33333601,-0.6239817 0.170404,-0.1704033 0.387594,-0.2864283 0.623982,-0.3333362 0.236428,-0.046867 0.48141,-0.02257 0.703983,0.06992 0.222572,0.09245 0.412694,0.248918 0.54631,0.4495221 0.133576,0.2006041 0.20458,0.4363494 0.204098,0.6773555 -6.82e-4,0.322012 -0.128916,0.630609 -0.35659,0.858322 -0.227712,0.227673 -0.53631,0.355907 -0.858321,0.35659 z"
     id="path11"
     style="stroke-width:4.01611" />
  <path
     d="m 7.2308468,7.2881136 c -0.577517,0 -1.142019,0.1713273 -1.622146,0.4922938 -0.480124,0.3209665 -0.854224,0.7771155 -1.074989,1.3107753 -0.220806,0.5336597 -0.278275,1.1208133 -0.165264,1.6871243 0.113052,0.566351 0.391569,1.086436 0.800288,1.494432 0.408718,0.408036 0.929286,0.685589 1.495838,0.797638 0.566552,0.11205 1.153585,0.05354 1.686842,-0.168195 0.533298,-0.221729 0.988806,-0.596632 1.3088892,-1.077319 0.320122,-0.480687 0.490445,-1.045512 0.489402,-1.623028 0,-0.7741434 -0.307513,-1.5165601 -0.8549082,-2.0639547 C 8.7474048,7.5904855 8.0049868,7.2829726 7.2308448,7.2829726 m 0,4.1337744 c -0.240886,0 -0.476391,-0.07149 -0.676635,-0.205384 -0.200283,-0.133857 -0.356307,-0.32418 -0.448396,-0.546792 -0.09208,-0.222613 -0.116019,-0.467555 -0.06884,-0.703782 0.04718,-0.2362272 0.163378,-0.4531768 0.333899,-0.6233393 0.170532,-0.1701618 0.387714,-0.2859062 0.624062,-0.3325734 0.236307,-0.046706 0.48121,-0.02221 0.703622,0.070321 0.222411,0.09253 0.412373,0.2489983 0.545868,0.4495625 0.13345,0.2005236 0.20442,0.4361886 0.203897,0.6770742 0,0.15976 -0.03148,0.317955 -0.09269,0.465507 -0.06125,0.147591 -0.150959,0.281609 -0.264058,0.394461 -0.113051,0.112852 -0.247311,0.202291 -0.394984,0.263215 -0.147717,0.06088 -0.305986,0.09205 -0.465745,0.09173 z"
     id="path12"
     style="stroke-width:4.01611" />
  <path
     d="m 13.071422,7.2881136 c -0.577515,0 -1.142018,0.1713273 -1.622143,0.4922938 -0.480124,0.3209665 -0.854224,0.7771155 -1.074989,1.3107753 -0.220806,0.5336597 -0.278276,1.1208133 -0.165265,1.6871243 0.113052,0.566351 0.391569,1.086436 0.800288,1.494432 0.408719,0.408036 0.929285,0.685629 1.495837,0.797638 0.566551,0.112051 1.153585,0.05354 1.686844,-0.168195 0.533298,-0.221729 0.988804,-0.596632 1.308928,-1.077319 0.320083,-0.480687 0.490367,-1.045512 0.489563,-1.623028 0,-0.7741434 -0.307634,-1.5165601 -0.855109,-2.0639547 C 14.587981,7.5904855 13.845565,7.2829726 13.07142,7.2829726 m 0,4.1337744 c -0.241003,5.22e-4 -0.476748,-0.07052 -0.677353,-0.204098 -0.200603,-0.133576 -0.357031,-0.323699 -0.449522,-0.546271 -0.09245,-0.222572 -0.116788,-0.467595 -0.06988,-0.7039824 0.04691,-0.2364279 0.162887,-0.4535785 0.333296,-0.624022 0.170453,-0.1704033 0.387594,-0.2864283 0.624023,-0.3333362 0.236388,-0.046868 0.48141,-0.02253 0.703983,0.06992 0.222572,0.09245 0.412694,0.248918 0.546269,0.4495223 0.133568,0.2006041 0.204622,0.4363494 0.204099,0.6773553 -6.84e-4,0.322011 -0.128871,0.630649 -0.35659,0.858322 -0.227673,0.227673 -0.536309,0.355907 -0.858325,0.35659 z"
     id="path13"
     style="stroke-width:4.01611" />
  <path
     d="m -21.962919,1.4503951 c -0.577299,0 -1.14163,0.1711884 -1.621635,0.491917 -0.480004,0.3207299 -0.854124,0.7765936 -1.075044,1.3099439 -0.220921,0.5333546 -0.278726,1.1202396 -0.166099,1.6864457 0.112618,0.5662223 0.390618,1.0863074 0.798831,1.494504 0.408209,0.4081966 0.928301,0.6861913 1.494504,0.7988429 0.566207,0.1126126 1.153092,0.05482 1.686438,-0.1661059 0.533339,-0.2209258 0.989207,-0.595066 1.309933,-1.0750706 0.320766,-0.4800044 0.491932,-1.0443189 0.491932,-1.6216135 0,-0.7741319 -0.307513,-1.5165564 -0.854908,-2.0639471 -0.547387,-0.5473944 -1.289815,-0.8549164 -2.063942,-0.8549166 z m 0,4.1337665 c -0.240906,0 -0.476395,-0.071486 -0.676667,-0.2053594 -0.200258,-0.1338924 -0.356311,-0.3241877 -0.448385,-0.5468042 -0.09207,-0.2226168 -0.11602,-0.4675427 -0.06884,-0.7037818 0.04718,-0.2362352 0.163402,-0.4531649 0.333919,-0.6233313 0.170528,-0.1701659 0.387702,-0.2859143 0.62404,-0.3326014 0.236333,-0.046684 0.481212,-0.022206 0.703632,0.070339 0.22242,0.092542 0.412386,0.2489905 0.545853,0.4495426 0.133487,0.2005518 0.204451,0.4361888 0.203929,0.6770947 0,0.1597614 -0.03153,0.3179507 -0.09273,0.4655183 -0.0612,0.1475677 -0.150925,0.2816132 -0.264014,0.3944617 -0.113086,0.1128481 -0.24732,0.202283 -0.395016,0.2631951 -0.147697,0.060885 -0.305954,0.092049 -0.465716,0.091729 z"
     id="path14"
     style="stroke-width:4.01611" />
  <path
     d="m -4.4468938,13.123269 c -0.5771944,5.22e-4 -1.1412559,0.17213 -1.6209393,0.493177 -0.4796831,0.321047 -0.8533815,0.777076 -1.0739055,1.310454 -0.2205242,0.533419 -0.2779545,1.120212 -0.1650633,1.686241 0.1129326,0.56603 0.391128,1.085914 0.7994452,1.49387 0.4083171,0.407915 0.9284024,0.685669 1.4945523,0.798079 0.5661097,0.112412 1.1528621,0.05446 1.6860802,-0.166506 0.533177,-0.221006 0.988925,-0.595146 1.30953,-1.075071 0.320606,-0.479964 0.491731,-1.044186 0.491731,-1.62138 0,-0.383538 -0.07558,-0.763301 -0.222452,-1.117601 -0.146827,-0.354301 -0.36205,-0.676191 -0.633378,-0.947238 -0.271328,-0.271087 -0.593379,-0.486029 -0.9478,-0.632576 -0.354461,-0.146547 -0.7342634,-0.221769 -1.1178006,-0.221449 z m 0,4.136344 c -0.2408058,0 -0.4761892,-0.07141 -0.6763922,-0.205182 -0.2002437,-0.133776 -0.3562682,-0.323939 -0.4483977,-0.546391 -0.092168,-0.222452 -0.1162679,-0.467274 -0.069316,-0.70342 0.046988,-0.236188 0.1629317,-0.453097 0.3332159,-0.62338 0.1702846,-0.170242 0.3871926,-0.286228 0.6233795,-0.333176 0.2361467,-0.04699 0.4809683,-0.02289 0.70342,0.06928 0.2224521,0.09213 0.4126141,0.248195 0.5463901,0.448398 0.133776,0.200204 0.205183,0.435586 0.205183,0.676392 3.21e-4,0.159961 -0.03092,0.318437 -0.09201,0.46631 -0.06105,0.147873 -0.150725,0.282211 -0.263818,0.395345 -0.113132,0.113132 -0.2474716,0.202773 -0.3953443,0.263858 -0.1478736,0.06104 -0.3063481,0.09229 -0.46631,0.09197 z"
     id="path15"
     style="stroke-width:4.01611" />
  <path
     d="m 1.3933208,1.4503951 c -0.577314,0 -1.14161701,0.1711884 -1.62162201,0.491917 -0.480004,0.3207299 -0.85414399,0.7765936 -1.07506999,1.3099439 -0.220926,0.5333546 -0.278717,1.1202396 -0.166106,1.6864457 0.112652,0.5662223 0.390646,1.0863074 0.79884299,1.494504 0.408197,0.4081966 0.928322,0.6861913 1.49451201,0.7988429 0.56619,0.1126106 1.153103,0.05482 1.686442,-0.1661059 0.533338,-0.2209258 0.989206,-0.595066 1.309932,-1.0750706 0.320726,-0.4800044 0.491933,-1.0443189 0.491933,-1.6216135 0,-0.3833088 -0.0755,-0.7628666 -0.222172,-1.1170026 C 3.9433048,2.8981242 3.7283228,2.5763502 3.4572758,2.3053115 3.1862298,2.0342688 2.8644598,1.8192671 2.5103198,1.6725802 2.1561798,1.5258937 1.7766178,1.450395 1.3933208,1.4503951 Z m 0,4.1337665 C 1.1523148,5.5846838 0.9165698,5.5136388 0.7159648,5.3800552 0.5153608,5.2464716 0.35889379,5.0563534 0.26644279,4.833785 0.17395179,4.6112127 0.14965479,4.3662063 0.19652279,4.1297985 0.24342979,3.8933908 0.35945579,3.67622 0.5298588,3.5057967 c 0.170444,-0.1704195 0.387594,-0.2864286 0.624022,-0.3333204 0.236388,-0.046895 0.48141,-0.022568 0.703983,0.0699 0.222572,0.092468 0.412654,0.2489099 0.54627,0.4495182 0.133576,0.2006081 0.20462,0.4363494 0.204098,0.6773638 0,0.3222118 -0.127993,0.6312269 -0.355826,0.8590684 -0.227874,0.2278377 -0.536873,0.355835 -0.859085,0.3558349 z"
     id="path16"
     style="stroke-width:4.01611" />
  <path
     d="m 7.2308468,1.4503951 c -0.577275,0 -1.141618,0.1711884 -1.621623,0.491917 -0.480005,0.3207299 -0.854104,0.7765936 -1.07503,1.3099439 -0.220927,0.5333546 -0.278757,1.1202396 -0.16611,1.6864457 0.11262,0.5662223 0.390606,1.0863074 0.798844,1.494504 0.408196,0.4081966 0.928281,0.6861913 1.49447,0.7988429 0.566232,0.112612 1.153104,0.05482 1.686442,-0.1661057 0.533378,-0.2209258 0.989248,-0.595066 1.3099732,-1.0750706 0.320726,-0.4800044 0.491892,-1.0443189 0.491892,-1.6216135 0,-0.7741319 -0.307513,-1.5165564 -0.8549082,-2.0639471 C 8.7474028,1.7579174 8.0049848,1.4503953 7.2308428,1.4503953 Z m 0,4.1337665 c -0.240886,0 -0.476391,-0.071486 -0.676635,-0.2053594 -0.200283,-0.133892 -0.356347,-0.3241877 -0.448396,-0.5468042 -0.09208,-0.2226168 -0.116019,-0.4675427 -0.06884,-0.7037818 0.04718,-0.2362352 0.163378,-0.4531649 0.333899,-0.6233313 0.170532,-0.1701657 0.387714,-0.2859143 0.624062,-0.3326014 0.236307,-0.046684 0.48121,-0.022206 0.703621,0.070339 0.222412,0.092542 0.412374,0.2489905 0.545869,0.4495426 0.13345,0.2005518 0.20442,0.4361888 0.203897,0.6770947 0,0.1597614 -0.03148,0.3179507 -0.09273,0.4655183 -0.06121,0.1475677 -0.150919,0.2816132 -0.264019,0.3944617 -0.113051,0.1128481 -0.247311,0.202283 -0.394984,0.2631951 -0.147717,0.060885 -0.305986,0.092049 -0.465746,0.091729 z"
     id="path17"
     style="stroke-width:4.01611" />
  <path
     d="m 18.908986,1.4503951 c -0.577114,0 -1.141375,0.1711884 -1.6217,0.491917 -0.479924,0.3207299 -0.853823,0.7765936 -1.07471,1.3099439 -0.220885,0.5333546 -0.278717,1.1202396 -0.166267,1.6864457 0.112444,0.5662223 0.390766,1.0863074 0.798803,1.494504 0.408438,0.4081966 0.928521,0.6861913 1.494388,0.7988429 0.566272,0.1126126 1.153426,0.05482 1.686764,-0.1661059 0.533339,-0.2209258 0.989166,-0.595066 1.309651,-1.0750706 0.320887,-0.4800044 0.491973,-1.0443189 0.491973,-1.6216135 0,-0.3833088 -0.0755,-0.7628666 -0.222089,-1.1170026 C 21.459203,2.8981242 21.243948,2.5763502 20.972862,2.3053115 20.702175,2.0342688 20.380083,1.8192671 20.026266,1.6725802 19.672045,1.5258936 19.292524,1.450395 18.908986,1.4503951 Z m 0,4.1337665 c -0.240965,0 -0.476307,-0.071486 -0.676712,-0.2053594 C 18.032278,5.2449098 17.876047,5.0546145 17.784076,4.831998 17.692111,4.6093812 17.668017,4.3644553 17.714995,4.1282162 c 0.0474,-0.2362352 0.163463,-0.4531649 0.334142,-0.6233313 0.17069,-0.1701659 0.387551,-0.2859143 0.624101,-0.3326014 0.236147,-0.046684 0.481128,-0.022206 0.70362,0.070339 0.222491,0.092542 0.412454,0.2489905 0.545788,0.4495426 0.133331,0.2005518 0.204419,0.4361888 0.204018,0.6770947 0,0.1597614 -0.03172,0.3179507 -0.09277,0.4655183 -0.06145,0.1475677 -0.151003,0.2816132 -0.264258,0.3944617 -0.11286,0.1128481 -0.246992,0.202283 -0.394785,0.2631951 -0.147803,0.060885 -0.306027,0.092049 -0.465867,0.091729 z"
     id="path18"
     style="stroke-width:4.01611" />
  <path
     d="m 18.908986,13.123269 c -0.577114,0 -1.141375,0.171207 -1.6217,0.491932 -0.479924,0.320726 -0.853823,0.776594 -1.07471,1.309932 -0.220885,0.533339 -0.278717,1.120252 -0.166267,1.686442 0.112444,0.56619 0.390766,1.086315 0.798803,1.494512 0.408438,0.408196 0.928521,0.686191 1.494388,0.798843 0.566272,0.112612 1.153426,0.05482 1.686764,-0.166106 0.533339,-0.220926 0.989166,-0.595066 1.309651,-1.075071 0.320887,-0.480004 0.491973,-1.044307 0.491973,-1.621621 0,-0.383297 -0.0755,-0.762859 -0.222089,-1.116999 -0.146596,-0.35414 -0.361851,-0.67591 -0.632937,-0.946956 -0.270687,-0.271047 -0.592779,-0.486029 -0.946596,-0.632737 -0.354221,-0.146668 -0.733742,-0.222171 -1.11728,-0.222171 z m 0,4.136344 c -0.240563,0 -0.475907,-0.07141 -0.676311,-0.205182 -0.199997,-0.133776 -0.356228,-0.323939 -0.448196,-0.546391 -0.09238,-0.222452 -0.11647,-0.467274 -0.06948,-0.70342 0.04698,-0.236188 0.163061,-0.453097 0.333339,-0.62338 0.170267,-0.170242 0.387151,-0.286228 0.623298,-0.333176 0.236146,-0.04699 0.480725,-0.02289 0.703217,0.06928 0.222494,0.09213 0.412856,0.248195 0.546594,0.448398 0.133733,0.200204 0.205221,0.435586 0.205221,0.676392 0,0.322895 -0.12852,0.632576 -0.356629,0.860892 -0.228515,0.228315 -0.538158,0.356589 -0.861053,0.356589 z"
     id="path19"
     style="stroke-width:4.01611" />
  <path
     d="m 13.071422,1.4503951 c -0.577273,0 -1.141616,0.1711884 -1.62162,0.491917 -0.480005,0.3207299 -0.854105,0.7765936 -1.075031,1.3099439 -0.220926,0.5333546 -0.278717,1.1202396 -0.166109,1.6864457 0.112619,0.5662223 0.390606,1.0863074 0.798841,1.494504 0.408198,0.4081966 0.928283,0.6861913 1.494513,0.7988429 0.566189,0.112612 1.153064,0.05482 1.686443,-0.1661057 C 14.7218,6.8450169 15.177667,6.4708767 15.498515,5.9908721 15.818999,5.5108677 15.990487,4.9465532 15.990487,4.3692586 15.989683,3.5953356 15.682049,2.8533087 15.134655,2.3060625 14.587381,1.7588176 13.845366,1.4510767 13.071422,1.4503951 Z m 0,4.1337665 C 12.830417,5.5846838 12.594672,5.5136382 12.394067,5.3800552 12.193464,5.2464718 12.037036,5.0563534 11.944545,4.833785 11.852087,4.6112127 11.827759,4.3662063 11.874666,4.1297985 11.921576,3.8933908 12.037553,3.67622 12.208003,3.5057967 c 0.170394,-0.1704195 0.387594,-0.2864286 0.623982,-0.3333204 0.236429,-0.046895 0.48141,-0.022568 0.703983,0.0699 0.222572,0.092468 0.412694,0.2489099 0.546269,0.4495182 0.133568,0.2006081 0.204622,0.4363494 0.204099,0.6773638 0,0.3222118 -0.127987,0.6312269 -0.355826,0.8590684 -0.227833,0.2278373 -0.536833,0.3558346 -0.859086,0.3558346 z"
     id="path20"
     style="stroke-width:4.01611" />
  <path
     d="m 13.071422,13.123269 c -0.577273,0 -1.141616,0.171207 -1.62162,0.491932 -0.480005,0.320726 -0.854105,0.776594 -1.075031,1.309932 -0.220926,0.533339 -0.278717,1.120252 -0.166109,1.686442 0.112619,0.56619 0.390606,1.086315 0.798841,1.494512 0.408198,0.408196 0.928283,0.686191 1.494513,0.798843 0.566189,0.112612 1.153064,0.05482 1.686443,-0.166106 0.533337,-0.220926 0.989204,-0.595066 1.310052,-1.07507 0.320488,-0.480005 0.491976,-1.044308 0.491976,-1.621622 -8.04e-4,-0.773903 -0.308438,-1.515958 -0.855832,-2.063192 -0.547274,-0.547234 -1.289289,-0.854988 -2.063233,-0.855671 z m 0,4.136344 c -0.240885,5.22e-4 -0.47651,-0.07044 -0.677074,-0.203938 -0.200564,-0.133455 -0.356992,-0.323416 -0.449562,-0.545828 -0.09254,-0.222452 -0.116982,-0.467314 -0.07033,-0.703661 0.04671,-0.236308 0.162454,-0.453499 0.332614,-0.624022 0.170158,-0.170524 0.387071,-0.28675 0.623339,-0.333939 0.236226,-0.04715 0.48117,-0.02321 0.703782,0.06888 0.222612,0.09205 0.412895,0.248115 0.546792,0.448358 0.133903,0.200282 0.205343,0.435787 0.205343,0.676673 0,0.322453 -0.127908,0.631733 -0.355667,0.859968 -0.227753,0.228275 -0.536792,0.35683 -0.859245,0.357513 z"
     id="path21"
     style="stroke-width:4.01611" />
  <path
     d="m 7.2308468,13.123269 c -0.577275,0 -1.141618,0.171207 -1.621623,0.491932 -0.480005,0.320726 -0.854104,0.776594 -1.07503,1.309932 -0.220927,0.533339 -0.278757,1.120252 -0.16611,1.686442 0.112621,0.56619 0.390606,1.086315 0.798844,1.494512 0.408196,0.408196 0.928281,0.686191 1.49447,0.798843 0.566232,0.112612 1.153104,0.05482 1.686442,-0.166106 0.533378,-0.220926 0.989248,-0.595066 1.3099732,-1.07507 0.320726,-0.480005 0.491892,-1.044307 0.491892,-1.621622 0,-0.774144 -0.307513,-1.51656 -0.8549082,-2.063955 -0.547394,-0.547395 -1.289812,-0.854908 -2.063954,-0.854908 z m 0,4.136344 c -0.240766,0 -0.47615,-0.07141 -0.676393,-0.205182 -0.200202,-0.133777 -0.356268,-0.323899 -0.448398,-0.546391 -0.09212,-0.222452 -0.116275,-0.467234 -0.06927,-0.70342 0.04699,-0.236188 0.162926,-0.453097 0.333177,-0.62338 0.170276,-0.170242 0.387232,-0.286228 0.623378,-0.333176 0.236187,-0.04699 0.480969,-0.02289 0.70342,0.06928 0.222493,0.09213 0.412616,0.248195 0.546392,0.448398 0.133784,0.200204 0.205182,0.435586 0.205182,0.676392 3.61e-4,0.160003 -0.03093,0.318437 -0.09197,0.46631 -0.06108,0.147873 -0.150724,0.282211 -0.263858,0.395345 -0.113129,0.113132 -0.247472,0.202773 -0.395344,0.263858 -0.147835,0.06104 -0.30631,0.09233 -0.46631,0.09197 z"
     id="path22"
     style="stroke-width:4.01611" />
  <path
     d="m 1.3933208,13.123269 c -0.577314,0 -1.14161701,0.171207 -1.62162201,0.491932 -0.480004,0.320726 -0.85414399,0.776594 -1.07506999,1.309932 -0.220926,0.533339 -0.278717,1.120252 -0.166106,1.686442 0.112652,0.56619 0.390646,1.086315 0.79884299,1.494512 0.408197,0.408196 0.928322,0.686191 1.49451201,0.798843 0.56619,0.11261 1.153103,0.05482 1.686442,-0.166106 0.533338,-0.220926 0.989206,-0.595066 1.309932,-1.075071 0.320726,-0.480004 0.491933,-1.044307 0.491933,-1.621621 0,-0.383297 -0.0755,-0.762859 -0.222172,-1.116999 -0.146708,-0.35414 -0.36169,-0.67591 -0.632737,-0.946956 -0.271046,-0.271047 -0.592816,-0.486029 -0.946956,-0.632737 -0.35414,-0.146668 -0.733702,-0.222171 -1.116999,-0.222171 z m 0,4.136344 c -0.240886,5.22e-4 -0.47655,-0.07044 -0.677114,-0.203938 -0.200525,-0.133455 -0.35699201,-0.323416 -0.44952301,-0.545828 -0.09253,-0.222452 -0.117029,-0.467314 -0.07032,-0.703661 0.04667,-0.236308 0.16241,-0.453499 0.33257401,-0.624022 0.170161,-0.170524 0.387112,-0.28675 0.623339,-0.333939 0.236227,-0.04715 0.481169,-0.02321 0.703781,0.06888 0.222613,0.09205 0.412896,0.248115 0.546793,0.448358 0.133898,0.200282 0.205383,0.435787 0.205383,0.676673 0,0.322453 -0.127912,0.631733 -0.355666,0.859968 -0.227793,0.228274 -0.536792,0.35683 -0.859245,0.357512 z"
     id="path23"
     style="stroke-width:4.01611" />
  <path
     d="m -21.962923,7.2881136 c -0.577518,0 -1.142052,0.1713273 -1.622166,0.4922938 -0.480116,0.3209665 -0.854231,0.7771155 -1.075,1.3107753 -0.220768,0.5336597 -0.278271,1.1208133 -0.165234,1.6871243 0.113041,0.566351 0.391546,1.086436 0.800275,1.494432 0.408726,0.408036 0.929297,0.685589 1.495841,0.797638 0.566544,0.112051 1.15359,0.05354 1.686852,-0.168195 0.533261,-0.221728 0.988768,-0.596632 1.308891,-1.077319 0.320084,-0.480687 0.490406,-1.045512 0.489402,-1.623028 -0.0014,-0.7732195 -0.30948,-1.514351 -0.856715,-2.0606212 -0.547274,-0.5462701 -1.288907,-0.8531002 -2.062146,-0.8531002 z m 0,4.1337734 c -0.240683,0 -0.475968,-0.07132 -0.676127,-0.204981 -0.200158,-0.133696 -0.356203,-0.323658 -0.448426,-0.54599 -0.09223,-0.222331 -0.116483,-0.466992 -0.06973,-0.7030585 0.04678,-0.2361065 0.162477,-0.4530565 0.332478,-0.6234196 0.170005,-0.1703631 0.386701,-0.2865487 0.622701,-0.3337781 0.236,-0.04727 0.480712,-0.023534 0.70322,0.068193 0.222512,0.091768 0.412835,0.2474321 0.546921,0.4472733 0.134101,0.1998815 0.205909,0.4350242 0.206431,0.6757089 0,0.15976 -0.03152,0.317955 -0.09273,0.465507 -0.06121,0.147591 -0.150929,0.281609 -0.264014,0.394461 -0.113089,0.112853 -0.247324,0.202292 -0.39502,0.263216 -0.147696,0.06088 -0.305953,0.09205 -0.465715,0.09173"
     id="path24"
     style="stroke-width:4.01611" />
  <path
     d="m -16.130177,7.2881136 c -0.577194,0.00153 -1.140975,0.1741372 -1.620055,0.4960286 -0.479081,0.3218907 -0.852017,0.7786016 -1.071577,1.3123817 -0.2196,0.5337802 -0.275986,1.1206931 -0.162088,1.6865221 0.113897,0.565829 0.393016,1.085191 0.802055,1.492424 0.409041,0.407233 0.929608,0.684062 1.495959,0.795469 0.56631,0.111407 1.152982,0.05241 1.685798,-0.16952 0.532775,-0.221929 0.987839,-0.596833 1.307601,-1.077359 0.319763,-0.480527 0.489925,-1.04503 0.488881,-1.622225 -6.43e-4,-0.3835371 -0.07691,-0.7631793 -0.22438,-1.1171987 -0.147471,-0.3540595 -0.363256,-0.6755484 -0.635066,-0.9461534 -0.27181,-0.2706049 -0.594263,-0.4849845 -0.948925,-0.6308896 -0.354702,-0.1459046 -0.734665,-0.2204839 -1.118203,-0.2194797 z m 0,4.1337734 c -0.240444,-10e-4 -0.475226,-0.07321 -0.674705,-0.207512 -0.199481,-0.134259 -0.354743,-0.324621 -0.446189,-0.547033 -0.09141,-0.222371 -0.114942,-0.466872 -0.06759,-0.7026572 0.04735,-0.2357451 0.163455,-0.452213 0.333658,-0.622054 0.170202,-0.16988 0.386911,-0.2855047 0.622777,-0.3323725 0.235866,-0.046829 0.480286,-0.022812 0.702497,0.069117 0.222211,0.091888 0.412253,0.2475525 0.546109,0.4473134 0.133857,0.1997607 0.205584,0.4346628 0.206066,0.6751473 3.62e-4,0.160522 -0.03104,0.319561 -0.09241,0.467875 -0.06137,0.148355 -0.151448,0.283096 -0.265062,0.39651 -0.113656,0.113374 -0.248597,0.203175 -0.397072,0.26422 -0.148476,0.06105 -0.307554,0.09213 -0.468078,0.09145 z"
     id="path25"
     style="stroke-width:4.01611" />
  <path
     d="m -21.962923,13.123269 c -0.577295,0 -1.141626,0.171207 -1.621635,0.491932 -0.480004,0.320726 -0.85412,0.776594 -1.075042,1.309932 -0.220921,0.533339 -0.278726,1.120252 -0.16612,1.686442 0.112619,0.56619 0.390623,1.086315 0.798828,1.494512 0.408215,0.408196 0.928303,0.686191 1.494508,0.798843 0.566205,0.112612 1.15309,0.05482 1.68644,-0.166106 0.533338,-0.220926 0.989206,-0.595066 1.309932,-1.075071 0.320766,-0.480004 0.491932,-1.044307 0.491932,-1.621621 0,-0.774144 -0.307513,-1.516561 -0.854907,-2.063955 -0.547385,-0.547395 -1.289814,-0.854908 -2.063944,-0.854908 z m 0,4.136344 c -0.240791,0 -0.476183,-0.07141 -0.676397,-0.205182 -0.200218,-0.133776 -0.356261,-0.323899 -0.448405,-0.546391 -0.09215,-0.222452 -0.116262,-0.467234 -0.06928,-0.70342 0.04696,-0.236188 0.162919,-0.453097 0.333196,-0.62338 0.170286,-0.170242 0.387205,-0.286228 0.623372,-0.333176 0.236168,-0.04699 0.480961,-0.02289 0.703429,0.06928 0.222464,0.09213 0.41261,0.248195 0.546387,0.448398 0.133775,0.200204 0.205182,0.435586 0.205182,0.676392 3.21e-4,0.160003 -0.03092,0.318437 -0.09197,0.46631 -0.06108,0.147873 -0.150744,0.282211 -0.263866,0.395345 -0.11312,0.113132 -0.247468,0.202773 -0.395333,0.263858 -0.147863,0.06104 -0.306335,0.09233 -0.466314,0.09197 z"
     id="path26"
     style="stroke-width:4.01611" />
  <path
     d="m 18.908986,7.2881136 c -0.577515,0 -1.141776,0.1713273 -1.622103,0.4922938 -0.479924,0.3209665 -0.854224,0.7771155 -1.075109,1.3107753 -0.220483,0.5336597 -0.278316,1.1208133 -0.165068,1.6871243 0.112856,0.566351 0.39157,1.086436 0.800408,1.494432 0.408438,0.408036 0.929327,0.685629 1.495597,0.797638 0.566672,0.112051 1.153826,0.05354 1.686761,-0.168195 0.533339,-0.221729 0.988766,-0.596632 1.309249,-1.07732 0.320086,-0.480687 0.490367,-1.045512 0.489163,-1.623027 0,-0.383297 -0.0755,-0.7628586 -0.222089,-1.1169986 C 21.459212,8.7306972 21.243948,8.4089273 20.972862,8.1378805 20.702175,7.8668337 20.380083,7.6518519 20.026266,7.5051437 19.672045,7.3584756 19.292524,7.2829728 18.908986,7.2829728 m 0,4.1337742 c -0.240965,0 -0.476307,-0.07149 -0.676712,-0.205384 -0.200002,-0.133856 -0.356227,-0.32418 -0.448198,-0.546792 -0.09197,-0.222613 -0.116058,-0.467515 -0.06907,-0.7037818 0.0474,-0.2362272 0.163463,-0.4531768 0.334142,-0.6233393 0.17069,-0.1701618 0.387551,-0.2859062 0.624101,-0.3325734 0.236147,-0.046706 0.481128,-0.02221 0.70362,0.070321 0.222492,0.09253 0.412454,0.2489983 0.545789,0.4495625 0.13333,0.2005236 0.204418,0.4361886 0.204017,0.677074 -8.03e-4,0.322453 -0.129325,0.631452 -0.357432,0.859245 -0.228517,0.227754 -0.537756,0.355666 -0.86025,0.355666 z"
     id="path27"
     style="stroke-width:4.01611" />
</svg>
